<?xml version="1.0" encoding="UTF-8"?>
<svg id="Layer_1" data-name="Layer 1" xmlns="http://www.w3.org/2000/svg" viewBox="0 0 163.44 213.7">
  <defs>
    <style>
      .cls-1 {
        fill: #003c77;
      }

      .cls-2 {
        fill: #fff;
      }

      .cls-3 {
        fill: #ffcf01;
      }
    </style>
  </defs>
  <path class="cls-1" d="m161.81,0H0v107.07c0,12.31,2.76,54.13,38.31,75.12,28.79,16.99,36.16,23.87,36.59,24.34,2.45,1.98,6.61,7.18,6.61,7.18,0,0,6.22-6.76,7.52-7.7l1.03-.87c-.11.11,5.33-5.31,35.09-22.96,35.53-21.08,38.29-62.82,38.29-75.1V0h-1.63Z"/>
  <path class="cls-2" d="m160.18,3.26v103.8c0,11.85-2.65,52.09-36.7,72.3-26.21,15.55-33.6,21.37-35.31,22.84l-.41.33s-3.73,3.04-6.2,6.16c-1.47-2.5-5.51-5.73-5.51-5.73l-.03-.03c-.61-.59-6.78-6.28-36.06-23.55C5.91,159.27,3.27,118.94,3.27,107.07V3.26h156.92Z"/>
  <path class="cls-1" d="m81.72,197.08s4.35-5.11,37.81-24.96c31.92-18.94,32.65-58.41,32.65-65.06V11.84H11.25v95.22c0,6.64.69,46.2,32.66,65.06,33.13,19.55,37.81,24.96,37.81,24.96Z"/>
  <path class="cls-3" d="m130.04,107.84c-4.24-2.14-4.39-1.44-10.79-2.46-3.66-.58-5.5-3.09-6.73-5.38l30.21-6.39-31.84-6.65c4.03-.96,8.45-2.29,11.04-4.54,2.68-2.33,4.46-6.6,9.54-7.01,4.85-.38,7.26,4.31,7.26,4.31,0,0,1.39-3.66-1.54-7.08-2.83-3.3-7.01-5.11-11.71-3.56-4.52,1.49-4.12,2.09-9.36,5.89-3.01,2.18-6.08,1.7-8.57.96l16.85-25.89-27.21,17.81c2.17-3.52,4.36-7.59,4.59-11.01.25-3.54-1.52-7.82,1.8-11.7,3.16-3.71,8.18-2.09,8.18-2.09,0,0-1.6-3.57-6.1-3.92-4.33-.33-8.57,1.35-10.79,5.76-2.15,4.25-1.45,4.4-2.46,10.79-.56,3.55-2.93,5.37-5.15,6.61l-6.03-30.76-7.16,32.81c-.96-4.1-2.3-8.69-4.61-11.34-2.34-2.68-6.61-4.45-7.01-9.54-.39-4.86,4.31-7.27,4.31-7.27,0,0-3.66-1.39-7.09,1.55-3.29,2.83-5.1,7.01-3.56,11.71,1.49,4.52,2.09,4.13,5.89,9.37,2.18,3.01,1.7,6.08.96,8.56l-25.89-16.85,17.81,27.21c-3.52-2.17-7.59-4.35-11.01-4.6-3.55-.25-7.82,1.52-11.71-1.79-3.7-3.16-2.09-8.18-2.09-8.18,0,0-3.57,1.6-3.92,6.1-.33,4.33,1.35,8.57,5.76,10.79,4.25,2.15,4.39,1.45,10.78,2.46,3.67.58,5.5,3.09,6.74,5.38l-30.22,6.39,31.84,6.65c-4.03.96-8.45,2.29-11.04,4.54-2.69,2.33-4.46,6.6-9.54,7.01-4.86.38-7.26-4.31-7.26-4.31,0,0-1.39,3.66,1.55,7.09,2.82,3.3,7.01,5.11,11.71,3.56,4.52-1.49,4.13-2.09,9.36-5.89,3.01-2.18,6.07-1.71,8.56-.96l-16.84,25.88,27.21-17.81c-2.17,3.52-4.36,7.6-4.6,11.02-.25,3.54,1.52,7.82-1.79,11.7-3.16,3.7-8.18,2.09-8.18,2.09,0,0,1.6,3.57,6.1,3.91,4.33.34,8.57-1.35,10.79-5.76,2.14-4.25,1.45-4.39,2.46-10.79.58-3.67,3.09-5.5,5.38-6.74l6.39,30.22,6.65-31.85c.96,4.03,2.29,8.46,4.54,11.05,2.33,2.68,6.6,4.45,7.01,9.54.39,4.86-4.31,7.27-4.31,7.27,0,0,3.66,1.39,7.08-1.55,3.3-2.83,5.1-7.01,3.56-11.71-1.49-4.52-2.09-4.13-5.89-9.37-2.18-3.01-1.7-6.08-.96-8.57l25.89,16.85-17.81-27.21c3.52,2.17,7.59,4.36,11.01,4.6,3.54.24,7.82-1.52,11.7,1.79,3.71,3.16,2.09,8.18,2.09,8.18,0,0,3.57-1.61,3.92-6.1.33-4.33-1.35-8.57-5.77-10.79Z"/>
</svg>