<?xml version="1.0" encoding="UTF-8"?>
<svg id="Layer_1" data-name="Layer 1" xmlns="http://www.w3.org/2000/svg" viewBox="0 0 254.97 349.29">
  <defs>
    <style>
      .cls-1 {
        fill: #003c77;
      }

      .cls-2 {
        fill: #fff;
      }

      .cls-3 {
        fill: #ffcf01;
      }

      .cls-4 {
        fill: #231f20;
      }
    </style>
  </defs>
  <path class="cls-1" d="m214.97,281.21l-2.22.19c-13.9,1.2-27.23,4.92-39.63,11.05-8.13,4.03-15.62,9-22.27,14.77l-.88.77,20.55,21.87.82-.74c4.89-4.42,10.47-8.19,16.58-11.21,9.6-4.75,19.94-7.42,30.74-7.94l2.86-.14-2.19-1.85c-.32-.27-7.53-6.29-14.97-9.41,1.21-1.97,9.45-15.46,9.45-15.46l1.16-1.9Z"/>
  <path class="cls-2" d="m202.11,300.16l-1.28-.47s7.8-12.77,9.66-15.81c-12.81,1.37-25.1,4.9-36.58,10.58-7.6,3.76-14.6,8.39-20.88,13.71,1.45,1.55,16.15,17.19,17.44,18.56,4.85-4.24,10.29-7.9,16.24-10.85,9-4.46,18.65-7.11,28.71-7.96-2.92-2.19-8.22-5.87-13.31-7.76Z"/>
  <path class="cls-1" d="m180.87,301.52l-2.7-.06c-.51,0-12.59-.08-26.49,5.79l-1.7.75,7.95,8.42.43-.2c.48-.28,9.47-3.82,18.66-11.47l3.84-3.22Z"/>
  <path class="cls-2" d="m158.4,313.89c-1.09-1.15-3.11-3.29-4.97-5.26,9.03-3.75,17.46-4.82,21.81-5.12-3.59,2.93-9.28,6.96-16.84,10.38Z"/>
  <path class="cls-1" d="m206.42,103.79H44.61v107.07c0,12.31,2.76,54.13,38.31,75.12,28.79,16.99,36.16,23.87,36.59,24.34,2.45,1.98,6.61,7.18,6.61,7.18,0,0,6.22-6.76,7.52-7.7l1.03-.87c-.11.11,5.33-5.31,35.09-22.96,35.53-21.08,38.29-62.82,38.29-75.1v-107.07h-1.63Z"/>
  <path class="cls-2" d="m204.79,107.05v103.8c0,11.85-2.65,52.09-36.7,72.3-26.21,15.55-33.6,21.37-35.31,22.84l-.41.33s-3.73,3.04-6.2,6.16c-1.47-2.5-5.51-5.73-5.51-5.73l-.03-.03c-.61-.59-6.78-6.28-36.06-23.55-34.06-20.1-36.71-60.43-36.71-72.3v-103.8h156.92Z"/>
  <path class="cls-1" d="m126.33,300.87s4.35-5.11,37.81-24.96c31.92-18.94,32.65-58.41,32.65-65.06v-95.22H55.86v95.22c0,6.64.69,46.2,32.66,65.06,33.13,19.55,37.81,24.96,37.81,24.96Z"/>
  <g>
    <path class="cls-4" d="m50.66.6v.71c0,2.09-2.02-.87-2.02,4.83v13.4c0,6.29-3.58,9.57-8.94,9.57-5.64,0-9.05-3.12-9.05-9.29V4.16c0-3.29-1.91-1.11-1.91-2.85v-.71h7.41v.71c0,1.74-1.91-.44-1.91,2.85v16.01c0,4.43,2.02,7.04,5.99,7.04,6.02,0,6.51-5.77,6.51-7.91V6.13c0-5.7-2.13-2.73-2.13-4.83v-.71h6.06Z"/>
    <path class="cls-4" d="m52.37,9.49l4.84-.16v1.98c1.6-1.66,3.24-2.41,5.39-2.41,3.79,0,5.54,2.01,5.54,5.34v10.8c0,2.8,1.85.87,1.85,2.65v.71h-7.07v-.71c0-1.78,1.88.16,1.88-2.65v-9.69c0-2.49-.28-4.54-3.48-4.54-1.32,0-3.17.99-3.89,2.33v11.91c0,2.8,1.88.87,1.88,2.65v.71h-6.93v-.71c0-1.7,1.71.04,1.71-2.65v-12.18c0-2.69-1.71-.99-1.71-2.57v-.79Z"/>
    <path class="cls-4" d="m77.46,25.04c0,2.69,1.67.95,1.67,2.65v.71h-6.72v-.71c0-1.7,1.7.04,1.7-2.65v-12.18c0-2.69-1.7-.95-1.7-2.65v-.71l5.04-.16v15.71Zm.18-20.88c0,1.3-.97,2.41-2.12,2.41s-2.12-1.11-2.12-2.41.98-2.42,2.12-2.42,2.12,1.11,2.12,2.42Z"/>
    <path class="cls-4" d="m93.54,16.34c.35-.87,1.15-2.97,1.15-3.88,0-1.62-1.95-.75-1.95-2.26v-.71h6.61v.71c0,1.82-1.22-.63-2.82,3.6l-5.71,14.87h-1.91l-5.99-15.26c-1.46-3.76-2.54-1.34-2.54-3.21v-.71h8.04v.71c0,1.5-1.95.71-1.95,2.06,0,.47.32,1.15.45,1.55l3.72,10.24,2.89-7.71Z"/>
    <path class="cls-4" d="m103.81,18.32c-.21,4.31,1.81,8.78,6.06,8.78,2.19,0,3.76-1.42,5.12-3.28l1.19,1.03c-1.78,2.73-3.97,4.15-7,4.15-5.19,0-8.95-4.35-8.95-10.24,0-5.57,3.34-9.84,8.35-9.84s7.42,4.27,7.28,9.41h-12.04Zm8.35-1.9c.18-2.89-.83-5.85-3.79-5.85s-4.25,2.88-4.46,5.85h8.25Z"/>
    <path class="cls-4" d="m123.37,15.31h.07c.53-2.45,2.16-6.41,4.77-6.41,1.22,0,2.26.79,2.26,2.25,0,1.23-.98,2.02-2.02,2.02-.9,0-1.43-.55-1.85-.55-1.81,0-3.27,6.09-3.27,8.74v3.68c0,3.08,2.12.63,2.12,2.65v.71h-7.45v-.71c0-1.98,2.02.36,2.02-2.65v-12.18c0-3.01-2.02-.68-2.02-2.65v-.71l5.36-.16v5.98Z"/>
    <path class="cls-4" d="m132.03,25.2c0-1.27.98-2.1,2.05-2.1.87,0,2.05.63,2.05,1.78,0,.32-.18.71-.18,1.03,0,1.34,1.6,1.42,2.44,1.42,1.74,0,3.93-.95,3.93-3.2,0-4.98-9.5-2.77-9.5-9.45,0-3.92,3.93-5.77,6.89-5.77,1.74,0,5.12.67,5.12,3.32,0,1.27-.98,1.93-1.99,1.93-.87,0-1.95-.55-1.95-1.74,0-.27.07-.55.07-.83,0-.91-1.22-1.03-1.81-1.03-1.36,0-3.17.99-3.17,2.77,0,4.67,9.68,2.61,9.68,9.41,0,4.23-3.9,6.25-7.17,6.25-1.88,0-6.47-.83-6.47-3.79Z"/>
    <path class="cls-4" d="m153.85,25.04c0,2.69,1.67.95,1.67,2.65v.71h-6.72v-.71c0-1.7,1.71.04,1.71-2.65v-12.18c0-2.69-1.71-.95-1.71-2.65v-.71l5.04-.16v15.71Zm.18-20.88c0,1.3-.97,2.41-2.12,2.41s-2.12-1.11-2.12-2.41.98-2.42,2.12-2.42,2.12,1.11,2.12,2.42Z"/>
    <path class="cls-4" d="m157.47,10.72c0-1.7,2.44-.16,2.44-3.01v-2.61c0-1.03.35-1.15,1.11-1.19l2.23-.16v5.73h4.11v2.14h-4.11v11.75c0,1.86.35,3.48,2.3,3.48.8,0,1.18-.12,1.88-.55l.24-.16.66,1.22c-1.04.99-2.85,1.62-4.25,1.62-3.45,0-4.18-2.69-4.18-4.66v-12.7h-2.44v-.91Z"/>
    <path class="cls-4" d="m182.43,16.02c.28-.79,1.01-2.89,1.01-3.72,0-1.7-1.81-.6-1.81-2.1v-.71h6.26v.71c0,1.66-1.04-.4-2.37,3.05l-6.47,16.92c-1.32,3.44-2.92,6.61-6.61,6.61-1.14,0-2.78-.75-2.78-2.37,0-1.31.9-2.06,1.98-2.06,2.33,0,1.36,1.98,2.33,1.98,1.74,0,3.27-4.35,3.87-5.93l-6.16-15.14c-1.43-3.52-2.61-1.31-2.61-3.05v-.71h7.94v.71c0,1.55-1.95.55-1.95,1.74,0,.44.38,1.31.56,1.7l4.04,9.84,2.79-7.47Z"/>
    <path class="cls-4" d="m215.03,18.79c0,5.57-3.58,10.2-8.63,10.2s-8.84-4.15-8.84-9.88,3.59-10.2,8.63-10.2,8.84,4.15,8.84,9.89Zm-13.61-.04c0,3.72.84,8.78,4.95,8.78s4.8-4.9,4.8-8.38c0-3.72-.76-8.78-4.94-8.78-3.86,0-4.8,4.9-4.8,8.38Z"/>
    <path class="cls-4" d="m217.3,11.63v-.71c0-.67.21-.75.66-.91,1.39-.47,1.22-.83,1.32-2.45.21-3.29.87-7.56,4.63-7.56.97,0,2.19.68,2.19,2.02,0,1.11-.76,1.74-1.6,1.74-.66,0-.97-.36-1.22-.68-.21-.35-.35-.67-.62-.67-.35,0-.45.55-.45.87.14,3.44.35,4.7.28,6.21h2.82v2.14h-2.82v13.21c0,3.16,2.16.87,2.16,2.85v.71h-7.34v-.71c0-1.78,1.85.16,1.85-2.65v-13.41h-1.85Z"/>
    <path class="cls-4" d="m0,82.18c0-2.78,3.06.7,3.06-4.56v-33.09c0-5.25-3.01-1.77-3.01-4.56v-1.14h11.8v1.14c0,2.79-3.06-.7-3.06,4.56v35.94h9.02c9.25,0,5.57-8.35,8.96-8.35h1.28v11.2H0v-1.14Z"/>
    <path class="cls-4" d="m34.97,67.18c-.33,6.9,2.89,14.05,9.69,14.05,3.51,0,6.01-2.28,8.19-5.25l1.89,1.65c-2.84,4.37-6.35,6.64-11.19,6.64-8.3,0-14.31-6.96-14.31-16.39,0-8.92,5.35-15.75,13.37-15.75s11.86,6.83,11.64,15.06h-19.27Zm13.36-3.04c.28-4.62-1.34-9.36-6.07-9.36s-6.79,4.62-7.13,9.36h13.2Z"/>
    <path class="cls-4" d="m55.01,55.03c0-2.72,3.9-.25,3.9-4.81v-4.18c0-1.64.56-1.83,1.78-1.9l3.56-.25v9.17h6.57v3.41h-6.57v18.79c0,2.97.56,5.57,3.68,5.57,1.28,0,1.89-.19,3.01-.88l.39-.25,1.06,1.96c-1.67,1.58-4.57,2.6-6.79,2.6-5.51,0-6.68-4.3-6.68-7.47v-20.31h-3.9v-1.45Z"/>
    <path class="cls-4" d="m82.3,77.94c0,4.43,2.84,1.45,2.84,4.24v1.14h-11.14v-1.14c0-2.85,2.95.25,2.95-4.24v-33.72c0-4.49-2.95-1.39-2.95-4.24v-1.14l8.3-.25v16.83c2.73-2.02,5.29-3.29,8.57-3.29,8.41,0,9.24,6.64,9.24,8.54v17.28c0,4.43,2.89,1.39,2.89,4.24v1.14h-11.02v-1.14c0-2.78,2.78.13,2.78-4.24v-15.76c0-2.02.05-7.02-5.57-7.02-2.34,0-5.46,1.46-6.91,3.55v19.23Z"/>
    <path class="cls-4" d="m113.71,54.65c2.34-1.71,5.06-2.53,7.85-2.53,7.85,0,12.7,7.08,12.7,15.88s-4.85,16.26-13.09,16.26c-2.84,0-6.12-1.33-8.41-3.23l-3.29,3.23h-1.11v-40.05c0-4.49-2.95-1.39-2.95-4.24v-1.14l8.3-.25v16.07Zm0,24.24c1.56,1.58,3.84,2.53,5.9,2.53,6.74,0,8.47-7.34,8.47-13.61s-2.01-12.85-8.47-12.85c-2.06,0-4.34.95-5.9,2.53v21.39Z"/>
    <path class="cls-4" d="m145.17,62.37h.11c.84-3.92,3.45-10.25,7.63-10.25,1.95,0,3.62,1.27,3.62,3.6,0,1.96-1.56,3.23-3.23,3.23-1.45,0-2.28-.89-2.95-.89-2.9,0-5.23,9.75-5.23,13.99v5.88c0,4.94,3.4,1.01,3.4,4.24v1.14h-11.92v-1.14c0-3.16,3.23.57,3.23-4.24v-19.49c0-4.81-3.23-1.07-3.23-4.24v-1.14l8.58-.25v9.55Z"/>
    <path class="cls-4" d="m166.1,77.94c0,4.3,2.67,1.52,2.67,4.24v1.14h-10.75v-1.14c0-2.72,2.73.06,2.73-4.24v-19.49c0-4.3-2.73-1.52-2.73-4.24v-1.14l8.08-.25v25.12Zm.28-33.41c0,2.09-1.56,3.86-3.4,3.86s-3.4-1.77-3.4-3.86,1.56-3.86,3.4-3.86,3.4,1.77,3.4,3.86Z"/>
    <path class="cls-4" d="m192,44.21c0-4.43-2.9-1.39-2.9-4.24v-1.14l8.24-.25v39.36c0,4.24,2.62,1.58,2.62,4.24v1.14h-7.79v-2.53c-2.23,2.34-5.18,3.48-8.02,3.48-7.85,0-12.7-7.09-12.7-15.88s4.84-16.26,13.09-16.26c2.67,0,5.12,1.14,7.46,2.53v-10.44Zm0,13.28c-1.56-1.58-3.84-2.53-5.9-2.53-6.74,0-8.46,7.34-8.46,13.61s2,12.85,8.46,12.85c2.06,0,4.34-.95,5.9-2.53v-21.39Z"/>
    <path class="cls-4" d="m207.97,78.7c2.17-.51,4.4-.95,6.63-.95,10.91,0,13.03,6.01,13.03,8.92,0,7.59-7.96,10.06-13.42,10.06-3.23,0-11.81-1.14-11.81-6.39,0-2.09,1.45-3.42,3.29-3.42,1.34,0,3.01,1.01,3.01,2.78,0,.76-.34,1.46-.34,2.03,0,2.28,4.9,2.34,6.24,2.34,2.89,0,8.24-1.39,8.24-5.57,0-4.94-6.85-5.57-9.97-5.57-4.68,0-8.8,1.33-9.41,1.33-.45,0-.45-.44-.33-.7l4.84-11.33c-2.84-1.9-4.68-5-4.68-8.73,0-7.15,5.73-11.39,11.69-11.39,2.29,0,4.23.76,6.24,1.9.39-2.47,1.95-4.43,4.29-4.43,1.61,0,3.17,1.08,3.17,3.1,0,1.52-1.06,2.59-2.45,2.59-1.84,0-1.95-1.46-2.45-1.46-.45,0-.67.57-.67,1.01,0,1.4,3.06,3.42,3.06,7.91,0,7.02-5.34,11.45-11.3,11.45-1.56,0-3.18-.13-4.62-.82l-2.29,5.32Zm6.85-6.52c4.29,0,5.73-5.32,5.73-9.3s-1.5-8.73-5.68-8.73c-4.51,0-5.96,5-5.96,9.24s1.61,8.8,5.9,8.8Z"/>
    <path class="cls-4" d="m235.21,67.18c-.34,6.9,2.89,14.05,9.69,14.05,3.51,0,6.02-2.28,8.19-5.25l1.89,1.65c-2.84,4.37-6.35,6.64-11.19,6.64-8.3,0-14.31-6.96-14.31-16.39,0-8.92,5.35-15.75,13.36-15.75s11.87,6.83,11.64,15.06h-19.27Zm13.36-3.04c.28-4.62-1.34-9.36-6.07-9.36s-6.79,4.62-7.12,9.36h13.2Z"/>
  </g>
  <path class="cls-3" d="m174.64,211.63c-4.24-2.14-4.39-1.44-10.79-2.46-3.66-.58-5.5-3.09-6.73-5.38l30.21-6.39-31.84-6.65c4.03-.96,8.45-2.29,11.04-4.54,2.68-2.33,4.46-6.6,9.54-7.01,4.85-.38,7.26,4.31,7.26,4.31,0,0,1.39-3.66-1.54-7.08-2.83-3.3-7.01-5.11-11.71-3.56-4.52,1.49-4.12,2.09-9.36,5.89-3.01,2.18-6.08,1.7-8.57.96l16.85-25.89-27.21,17.81c2.17-3.52,4.36-7.59,4.59-11.01.25-3.54-1.52-7.82,1.8-11.7,3.16-3.71,8.18-2.09,8.18-2.09,0,0-1.6-3.57-6.1-3.92-4.33-.33-8.57,1.35-10.79,5.76-2.15,4.25-1.45,4.4-2.46,10.79-.56,3.55-2.93,5.37-5.15,6.61l-6.03-30.76-7.16,32.81c-.96-4.1-2.3-8.69-4.61-11.34-2.34-2.68-6.61-4.45-7.01-9.54-.39-4.86,4.31-7.27,4.31-7.27,0,0-3.66-1.39-7.09,1.55-3.29,2.83-5.1,7.01-3.56,11.71,1.49,4.52,2.09,4.13,5.89,9.37,2.18,3.01,1.7,6.08.96,8.56l-25.89-16.85,17.81,27.21c-3.52-2.17-7.59-4.35-11.01-4.6-3.55-.25-7.82,1.52-11.71-1.79-3.7-3.16-2.09-8.18-2.09-8.18,0,0-3.57,1.6-3.92,6.1-.33,4.33,1.35,8.57,5.76,10.79,4.25,2.15,4.39,1.45,10.78,2.46,3.67.58,5.5,3.09,6.74,5.38l-30.22,6.39,31.84,6.65c-4.03.96-8.45,2.29-11.04,4.54-2.69,2.33-4.46,6.6-9.54,7.01-4.86.38-7.26-4.31-7.26-4.31,0,0-1.39,3.66,1.55,7.09,2.82,3.3,7.01,5.11,11.71,3.56,4.52-1.49,4.13-2.09,9.36-5.89,3.01-2.18,6.07-1.71,8.56-.96l-16.84,25.88,27.21-17.81c-2.17,3.52-4.36,7.6-4.6,11.02-.25,3.54,1.52,7.82-1.79,11.7-3.16,3.7-8.18,2.09-8.18,2.09,0,0,1.6,3.57,6.1,3.91,4.33.34,8.57-1.35,10.79-5.76,2.14-4.25,1.45-4.39,2.46-10.79.58-3.67,3.09-5.5,5.38-6.74l6.39,30.22,6.65-31.85c.96,4.03,2.29,8.46,4.54,11.05,2.33,2.68,6.6,4.45,7.01,9.54.39,4.86-4.31,7.27-4.31,7.27,0,0,3.66,1.39,7.08-1.55,3.3-2.83,5.1-7.01,3.56-11.71-1.49-4.52-2.09-4.13-5.89-9.37-2.18-3.01-1.7-6.08-.96-8.57l25.89,16.85-17.81-27.21c3.52,2.17,7.59,4.36,11.01,4.6,3.54.24,7.82-1.52,11.7,1.79,3.71,3.16,2.09,8.18,2.09,8.18,0,0,3.57-1.61,3.92-6.1.33-4.33-1.35-8.57-5.77-10.79Z"/>
  <path class="cls-1" d="m38.58,282.89s8.24,13.49,9.45,15.46c-7.45,3.12-14.65,9.14-14.97,9.41l-2.19,1.85,2.86.14c10.8.52,21.15,3.19,30.74,7.94,6.11,3.02,11.68,6.79,16.58,11.21l.82.74,20.55-21.87-.88-.77c-6.64-5.77-14.13-10.74-22.27-14.77-12.4-6.13-25.73-9.85-39.63-11.05l-2.22-.19,1.16,1.9Z"/>
  <path class="cls-2" d="m50.29,299.94l1.28-.47s-7.8-12.77-9.66-15.81c12.8,1.37,25.1,4.9,36.58,10.58,7.6,3.76,14.6,8.39,20.88,13.71-1.45,1.55-16.15,17.19-17.44,18.56-4.85-4.24-10.29-7.9-16.24-10.85-9-4.45-18.65-7.11-28.71-7.96,2.92-2.19,8.22-5.87,13.31-7.76Z"/>
  <path class="cls-1" d="m126.34,320.58c-19.63,0-37.33-6.26-51.68-19.31l-1.81-.03-1.31.06-15.05,22.15.77.65c19.27,16.24,43.8,25.19,69.08,25.19s49.72-8.86,68.59-24.95l.76-.65-14.82-22.18-1.4-.04h-2.06c-13.93,12.88-31.34,19.1-51.06,19.1Z"/>
  <path class="cls-2" d="m126.43,322.75c19.84,0,38.48-7.03,52.72-19.74,1.22,1.8,12.62,18.68,13.63,20.18-18.35,15.33-41.86,23.77-66.35,23.77s-48.11-8.54-66.85-24.03c1.02-1.51,12.42-18.39,13.63-20.18,14.63,12.88,33.46,20,53.21,20Z"/>
  <g>
    <path class="cls-4" d="m78.8,313.46l6.63,4.09-.97,1.57-4.84-2.99-2.25,3.65,4.63,2.85-.97,1.57-4.63-2.86-3.5,5.68-1.79-1.1,7.7-12.48Z"/>
    <path class="cls-4" d="m90.08,319.79l1.91.87-6.06,13.35-1.91-.87,6.06-13.35Z"/>
    <path class="cls-4" d="m102,324.31l2.12.6,2,15.79-2.2-.62-.44-3.96-6.91-1.94-2.44,3.15-2.12-.6,9.99-12.42Zm.46,2.18l-4.78,6.21,5.62,1.58-.84-7.79Z"/>
    <path class="cls-4" d="m117.05,329.17l-4.54-.42.17-1.84,11.16,1.04-.17,1.84-4.54-.42-1.19,12.76-2.09-.2,1.19-12.75Z"/>
    <path class="cls-4" d="m136.53,327.29l2.07-.32,1.98,12.66,6.06-.95.29,1.83-8.13,1.27-2.26-14.48Z"/>
    <path class="cls-4" d="m162.59,329.44c1.34,3.89.09,6.65-3.33,7.83-3.42,1.17-6.1-.24-7.44-4.13l-2.79-8.12,1.99-.68,2.7,7.87c.92,2.66,2.38,4.2,4.94,3.32,2.56-.88,2.77-2.99,1.85-5.65l-2.7-7.87,1.99-.68,2.79,8.12Z"/>
    <path class="cls-4" d="m171.79,323.06l-7.8-3.59,2.17-1.27,6.22,2.88.51-6.82,2.07-1.21-.72,8.53,8.55,3.87-2.28,1.34-6.88-3.18-.46,7.48-2.17,1.27.8-9.3Z"/>
  </g>
  <path class="cls-1" d="m75.37,304.52c9.19,7.66,18.18,11.2,18.66,11.47l.43.2,7.95-8.42-1.7-.75c-13.9-5.87-25.97-5.79-26.49-5.79l-2.7.06,3.84,3.22Z"/>
  <path class="cls-2" d="m94,313.67c1.09-1.15,3.1-3.29,4.97-5.26-9.21-3.73-17.46-4.82-21.81-5.12,3.59,2.93,9.28,6.96,16.84,10.38Z"/>
</svg>